<?xml version="1.0" encoding="utf-8"?>
<!-- Generator: Adobe Illustrator 25.0.0, SVG Export Plug-In . SVG Version: 6.00 Build 0)  -->
<svg version="1.1" id="Capa_1" xmlns="http://www.w3.org/2000/svg" xmlns:xlink="http://www.w3.org/1999/xlink" x="0px" y="0px"
	 viewBox="0 0 16 16" style="enable-background:new 0 0 16 16;" xml:space="preserve">
<style type="text/css">
	.st0{fill:#FFFFFF;}
</style>
<path class="st0" d="M13.5,0.8l0.1-0.1c0.5-0.5,1.2-0.5,1.7,0c0.5,0.5,0.5,1.2,0,1.7l-0.1,0.1c0.5,0.6,0.5,1.5-0.1,2.1L4.9,14.9
	C4.8,14.9,4.7,15,4.6,15l-4,1c-0.3,0.1-0.5-0.1-0.6-0.4c0-0.1,0-0.2,0-0.2l1-4c0-0.1,0.1-0.2,0.1-0.2l9.6-9.6
	c-0.2-0.1-0.5-0.1-0.6,0.1L6.9,4.9C6.7,5,6.3,5,6.1,4.9S6,4.3,6.1,4.1l3.3-3.3c0.6-0.6,1.5-0.6,2.1-0.1C12.1,0.3,12.9,0.3,13.5,0.8z
	"/>
</svg>
